<svg aria-hidden="true" style="position: absolute; width: 0; height: 0; overflow: hidden;" version="1.1" xmlns="http://www.w3.org/2000/svg" xmlns:xlink="http://www.w3.org/1999/xlink">
<defs>
<symbol id="icon-email" viewBox="0 0 32 32">
<path d="M16 0c-8.836 0-16 7.164-16 16s7.163 16 16 16 16-7.164 16-16c0-8.836-7.164-16-16-16zM16 5.62l9.468 5.904h-18.936l9.468-5.904zM25.586 20.952h-0.001c0 0.947-0.767 1.714-1.714 1.714h-15.742c-0.947 0-1.714-0.767-1.714-1.714v-9.052c0-0.1 0.010-0.198 0.027-0.293l9.046 5.641c0.011 0.007 0.023 0.012 0.034 0.018s0.024 0.013 0.036 0.019c0.064 0.033 0.13 0.060 0.197 0.077 0.007 0.002 0.014 0.003 0.021 0.004 0.074 0.017 0.149 0.028 0.223 0.028h0.001c0.001 0 0.001 0 0.001 0 0.075 0 0.149-0.011 0.223-0.028 0.007-0.002 0.014-0.002 0.021-0.004 0.067-0.017 0.133-0.044 0.197-0.077 0.012-0.006 0.024-0.012 0.036-0.019s0.023-0.011 0.034-0.018l9.046-5.641c0.017 0.096 0.027 0.193 0.027 0.293v9.052z"></path>
</symbol>
<symbol id="icon-github" viewBox="0 0 32 32">
<path d="M15.952 0c-8.81 0.001-15.951 7.142-15.952 15.952v0c0 7.044 4.6 13.014 10.862 15.168 0.784 0.098 1.076-0.392 1.076-0.784v-2.74c-4.402 0.98-5.38-2.152-5.38-2.152-0.686-1.86-1.762-2.35-1.762-2.35-1.468-0.978 0.096-0.978 0.096-0.978 1.566 0.098 2.448 1.664 2.448 1.664 1.468 2.446 3.718 1.76 4.6 1.37 0.096-1.076 0.586-1.76 0.978-2.152-3.524-0.392-7.242-1.762-7.242-7.928 0-1.76 0.586-3.132 1.664-4.306-0.1-0.294-0.686-1.956 0.196-4.11 0 0 1.37-0.392 4.402 1.664 1.272-0.392 2.644-0.49 4.014-0.49s2.74 0.196 4.012 0.49c3.034-2.054 4.404-1.664 4.404-1.664 0.88 2.154 0.292 3.816 0.194 4.208 1.032 1.121 1.664 2.624 1.664 4.274 0 0.011-0 0.023-0 0.034v-0.002c0 6.166-3.72 7.438-7.24 7.83 0.586 0.488 1.076 1.466 1.076 2.934v4.404c0 0.392 0.292 0.88 1.076 0.784 6.369-2.196 10.862-8.138 10.862-15.13 0-0.013-0-0.027-0-0.040v0.002c-0.098-8.808-7.24-15.952-16.048-15.952z"></path>
</symbol>
<symbol id="icon-linkedin" viewBox="0 0 32 32">
<path d="M23.956 0.013h-15.937c-4.416 0-8.019 3.603-8.019 8.019v15.962c0 4.39 3.603 7.994 8.019 7.994h15.962c4.416 0 8.019-3.604 8.019-8.019v-15.937c-0.025-4.416-3.629-8.019-8.044-8.019zM10.658 25.897h-4.568v-13.196h4.568v13.196zM8.349 10.671c-1.294 0-2.335-1.040-2.335-2.335s1.040-2.335 2.335-2.335c1.294 0 2.335 1.040 2.335 2.335-0.025 1.294-1.066 2.335-2.335 2.335zM25.91 25.897h-3.832v-6.395c0-1.548-0.203-3.527-2.309-3.527-2.157 0-2.512 1.675-2.512 3.426v6.496h-3.806v-13.196h3.553v1.776h0.102c0.558-1.015 1.852-1.802 3.883-1.802 4.187 0 4.923 2.411 4.923 5.989v7.232z"></path>
</symbol>
<symbol id="icon-phone" viewBox="0 0 32 32">
<path d="M31.691 21.815c-1.071-2.024-4.789-4.219-4.953-4.315-0.478-0.272-0.976-0.416-1.443-0.416-0.694 0-1.262 0.318-1.606 0.896-0.544 0.651-1.219 1.411-1.382 1.529-1.268 0.859-2.259 0.762-3.357-0.335l-6.125-6.125c-1.091-1.091-1.191-2.095-0.337-3.355 0.119-0.165 0.879-0.84 1.53-1.384 0.415-0.247 0.7-0.613 0.824-1.063 0.166-0.599 0.044-1.303-0.348-1.991-0.092-0.158-2.287-3.876-4.312-4.947-0.378-0.2-0.803-0.306-1.23-0.306-0.703 0-1.364 0.274-1.861 0.771l-1.352 1.353c-2.141 2.14-2.916 4.565-2.304 7.209 0.51 2.204 1.996 4.548 4.417 6.969l7.842 7.842c2.61 2.61 5.115 4.12 7.468 4.512-0.573 1.336-1.901 2.274-3.445 2.274-1.668 0-3.11-1.073-3.589-2.671l-0.482-1.607c-0.095-0.317-0.382-0.53-0.714-0.53s-0.618 0.213-0.714 0.531l-0.887 2.955-0.886-2.955c-0.095-0.317-0.382-0.53-0.714-0.53s-0.618 0.213-0.714 0.531l-0.886 2.954-0.886-2.955c-0.095-0.317-0.382-0.53-0.714-0.53s-0.618 0.213-0.714 0.531l-0.886 2.954-0.886-2.955c-0.095-0.317-0.382-0.53-0.714-0.53s-0.618 0.213-0.714 0.531l-0.886 2.954-0.886-2.955c-0.095-0.317-0.382-0.53-0.714-0.53s-0.618 0.213-0.714 0.531l-1.397 4.657c-0.084 0.282 0.076 0.579 0.358 0.664 0.051 0.015 0.103 0.023 0.153 0.023 0.23 0 0.442-0.149 0.511-0.38l1.089-3.63 0.886 2.955c0.095 0.317 0.382 0.53 0.714 0.53s0.618-0.213 0.714-0.531l0.886-2.954 0.886 2.955c0.095 0.317 0.382 0.53 0.714 0.53s0.618-0.213 0.714-0.531l0.886-2.954 0.886 2.955c0.095 0.317 0.382 0.53 0.714 0.53s0.618-0.213 0.714-0.531l0.886-2.954 0.886 2.955c0.095 0.317 0.382 0.53 0.714 0.53s0.618-0.213 0.714-0.531l0.886-2.955 0.174 0.58c0.615 2.053 2.469 3.431 4.611 3.431 2.102 0 3.889-1.357 4.544-3.238 0.038 0.001 0.078 0.004 0.116 0.004 0.001 0 0 0 0.001 0 1.984 0 3.833-0.843 5.496-2.506l1.353-1.352c0.822-0.823 1.009-2.065 0.465-3.091z"></path>
</symbol>
<symbol id="icon-menu" viewBox="0 0 32 32"><path d="M6.4 11.733v-2.133h19.2v2.133h-19.2zM6.4 17.067h19.2v-2.133h-19.2v2.133zM6.4 22.4h19.2v-2.133h-19.2v2.133z"></path></symbol>
</defs>
</svg>
